name Walk5.mot
datacolumns 19
datarows 10
range 2.48000000 2.52500000
endheader

                time	   L_ground_force_vx	   L_ground_force_vy	   L_ground_force_vz	   L_ground_force_px	   L_ground_force_py	   L_ground_force_pz	   R_ground_force_vx	   R_ground_force_vy	   R_ground_force_vz	   R_ground_force_px	   R_ground_force_py	   R_ground_force_pz	   L_ground_torque_x	   L_ground_torque_y	   L_ground_torque_z	   R_ground_torque_x	   R_ground_torque_y	   R_ground_torque_z	
          2.48000000	         -5.38368782	         74.20085705	         -6.01289785	         -0.15327778	          0.00000000	         -0.02974267	         -0.00000000	          0.00000000	          0.00000000	          0.00000000	          0.00000000	          0.00000000	          0.00000000	          0.12221125	          0.00000000	          0.00000000	          0.00000000	          0.00000000	
          2.48500000	         -9.74048177	        112.13626114	         -7.77487932	         -0.20060004	          0.00000000	         -0.03905254	         -0.00000000	          0.00000000	          0.00000000	          0.00000000	          0.00000000	          0.00000000	          0.00000000	          0.20671803	          0.00000000	          0.00000000	          0.00000000	          0.00000000	
          2.49000000	        -15.33321448	        157.46313206	         -9.56384005	         -0.24967225	          0.00000000	         -0.04875731	         -0.00000000	          0.00000000	          0.00000000	          0.00000000	          0.00000000	          0.00000000	          0.00000000	          0.31299854	          0.00000000	          0.00000000	          0.00000000	          0.00000000	
          2.49500000	        -22.17068810	        208.78314073	        -11.18963753	         -0.29636274	          0.00000000	         -0.05805887	         -0.00000000	          0.00000000	          0.00000000	          0.00000000	          0.00000000	          0.00000000	          0.00000000	          0.43998544	          0.00000000	          0.00000000	          0.00000000	          0.00000000	
          2.50000000	        -30.14460370	        263.59986171	        -12.45418120	         -0.33763799	          0.00000000	         -0.06636828	         -0.00000000	          0.00000000	         -0.00000000	         -0.00000000	          0.00000000	         -0.00000000	          0.00000000	          0.58349347	          0.00000000	          0.00000000	          0.00000000	          0.00000000	
          2.50500000	        -38.98421700	        318.86529240	        -13.20135005	         -0.37197722	          0.00000000	         -0.07339651	         -0.00000000	          0.00000000	         -0.00000000	         -0.00000000	          0.00000000	         -0.00000000	          0.00000000	          0.73606256	          0.00000000	          0.00000000	          0.00000000	          0.00000000	
          2.51000000	        -48.24370974	        371.90999978	        -13.30583020	         -0.39895179	          0.00000000	         -0.07906598	         -0.00000000	         -0.00000000	         -0.00000000	         -0.00000000	          0.00000000	         -0.00000000	          0.00000000	          0.88850389	          0.00000000	          0.00000000	          0.00000000	          0.00000000	
          2.51500000	        -57.41386104	        420.92141290	        -12.65661258	         -0.41886087	          0.00000000	         -0.08343709	         -0.00000000	         -0.00000001	         -0.00000000	         -0.00000000	          0.00000000	         -0.00000000	          0.00000000	          1.03264603	          0.00000000	          0.00000000	          0.00000000	          0.00000000	
          2.52000000	        -66.09089731	        464.97355774	        -11.18892354	         -0.43243937	          0.00000000	         -0.08665069	          0.00000000	         -0.00000001	         -0.00000000	         -0.00000000	          0.00000000	         -0.00000000	          0.00000000	          1.16281090	          0.00000000	          0.00000000	          0.00000000	          0.00000000	
          2.52500000	        -74.09825142	        503.93270113	         -8.91637158	         -0.44063984	          0.00000000	         -0.08888599	          0.00000000	         -0.00000002	         -0.00000000	         -0.00000000	          0.00000000	         -0.00000000	          0.00000000	          1.27677922	          0.00000000	          0.00000000	          0.00000000	          0.00000000	
